<svg width="164" height="164" viewBox="0 0 164 164" fill="none" xmlns="http://www.w3.org/2000/svg">
<path d="M64.9165 106.49V57.5091C64.9175 56.8963 65.0834 56.295 65.3966 55.7683C65.7099 55.2416 66.1591 54.8088 66.6971 54.5153C67.2351 54.2219 67.8421 54.0785 68.4546 54.1003C69.067 54.1221 69.6624 54.3082 70.1782 54.6391L108.281 79.123C108.763 79.4321 109.16 79.8576 109.435 80.3603C109.71 80.863 109.854 81.4268 109.854 81.9998C109.854 82.5728 109.71 83.1366 109.435 83.6393C109.16 84.142 108.763 84.5675 108.281 84.8766L70.1782 109.367C69.6624 109.698 69.067 109.884 68.4546 109.906C67.8421 109.928 67.2351 109.785 66.6971 109.491C66.1591 109.198 65.7099 108.765 65.3966 108.238C65.0834 107.711 64.9175 107.11 64.9165 106.497V106.49Z" fill="#E2E2E2"/>
<path d="M6.8335 82.0002C6.8335 40.4877 40.4877 6.8335 82.0002 6.8335C123.513 6.8335 157.167 40.4877 157.167 82.0002C157.167 123.513 123.513 157.167 82.0002 157.167C40.4877 157.167 6.8335 123.513 6.8335 82.0002ZM82.0002 17.0835C64.7832 17.0835 48.2714 23.9229 36.0971 36.0971C23.9229 48.2714 17.0835 64.7832 17.0835 82.0002C17.0835 99.2171 23.9229 115.729 36.0971 127.903C48.2714 140.077 64.7832 146.917 82.0002 146.917C99.2171 146.917 115.729 140.077 127.903 127.903C140.077 115.729 146.917 99.2171 146.917 82.0002C146.917 64.7832 140.077 48.2714 127.903 36.0971C115.729 23.9229 99.2171 17.0835 82.0002 17.0835Z" fill="#E2E2E2"/>
</svg>
